<svg width="512" height="512" viewBox="0 0 512 512" fill="none" xmlns="http://www.w3.org/2000/svg">
<path d="M268.064 256.75L406.657 118.157C409.781 115.033 409.781 109.968 406.657 106.844C403.532 103.72 398.468 103.72 395.343 106.844L256.75 245.436L118.157 106.843C115.033 103.719 109.968 103.719 106.844 106.843C103.719 109.967 103.719 115.032 106.844 118.156L245.436 256.75L106.843 395.343C103.718 398.468 103.718 403.532 106.843 406.657C108.405 408.219 110.452 409 112.5 409C114.548 409 116.595 408.219 118.157 406.657L256.75 268.064L395.343 406.657C396.906 408.219 398.952 409 401 409C403.048 409 405.095 408.219 406.657 406.657C409.781 403.532 409.781 398.468 406.657 395.343L268.064 256.75Z" fill="white"/>
</svg>
