<svg width="200" height="200" viewBox="0 0 200 200" fill="none" xmlns="http://www.w3.org/2000/svg">
<path d="M100 175.69C98.7526 175.689 97.5506 175.222 96.63 174.38L48.06 130H29.31C27.9839 130 26.7121 129.473 25.7745 128.536C24.8368 127.598 24.31 126.326 24.31 125V75C24.31 73.6739 24.8368 72.4021 25.7745 71.4645C26.7121 70.5268 27.9839 70 29.31 70H48.06L96.63 25.62C97.3459 24.9668 98.2362 24.5358 99.1926 24.3793C100.149 24.2228 101.13 24.3476 102.017 24.7385C102.904 25.1295 103.658 25.7697 104.187 26.5813C104.717 27.3929 104.999 28.3409 105 29.31V170.69C105 172.016 104.473 173.288 103.536 174.226C102.598 175.163 101.326 175.69 100 175.69ZM34.31 120H50C51.2474 120.001 52.4494 120.468 53.37 121.31L95 159.31V40.65L53.37 78.65C52.4555 79.5063 51.2528 79.9881 50 80H34.31V120Z" fill="#fff"/>
<rect x="168.036" y="70" width="7.72551" height="77.8324" transform="rotate(45 168.036 70)" fill="#fff"/>
<rect x="113" y="75.4628" width="7.72551" height="77.8324" transform="rotate(-45 113 75.4628)" fill="#fff"/>
</svg>
